<svg fill="#0B63B2" id="Layer_1" enable-background="new 0 0 512 512" height="512" viewBox="0 0 512 512" width="512" xmlns="http://www.w3.org/2000/svg"><path d="m402 153h-202v-40h202zm-202 120h88.487c3.851-5.546 8.143-10.838 12.87-15.818 9.27-9.765 19.748-17.858 31.075-24.182h-132.432zm0 127h46.487c4.69-10.758 10.898-20.925 18.513-30.232v-9.768h-65zm-75-45c-13.807 0-25 11.193-25 25s11.193 25 25 25 25-11.193 25-25-11.193-25-25-25zm362.157 34.244c16.021 16.281 24.843 37.396 24.843 59.453v23.375h-116.564c10.357.742 18.564 9.385 18.564 19.928 0 11.027-8.973 20-20 20s-20-8.973-20-20c0-10.543 8.207-19.186 18.564-19.927h-116.564v-21.816c0-22.719 9.041-44.491 25.458-61.307 2.284-2.34 3.542-6.143 3.542-10.707v-30.243c0-42.448 29.592-78.426 69-87.684v-27.316h40v27.316c39.408 9.258 69 45.236 69 87.684v27c0 6.367 1.516 11.559 4.157 14.244zm-18.561 42.829c-2.263-5.357-5.616-10.37-9.95-14.775-7.138-7.254-15.646-20.48-15.646-42.298v-27c0-27.168-22-50-49-50s-49 22.832-49 50v30.244c0 15.067-5.299 28.793-14.92 38.649-4.431 4.538-7.89 9.683-10.271 15.181h148.787zm-343.596-324.073c-13.807 0-25 11.193-25 25s11.193 25 25 25 25-11.193 25-25-11.193-25-25-25zm0 120c-13.807 0-25 11.193-25 25s11.193 25 25 25 25-11.193 25-25-11.193-25-25-25zm327-228h-392c-33.084 0-60 26.916-60 60v392c0 33.084 26.916 60 60 60h176v-40h-176c-11.028 0-20-8.972-20-20v-392c0-11.028 8.972-20 20-20h392c11.028 0 20 8.972 20 20v183.904c5.145 4.013 10.045 8.435 14.642 13.278 10.743 11.318 19.267 24.224 25.358 38.142v-235.324c0-33.084-26.916-60-60-60z"/></svg>